<svg xmlns="http://www.w3.org/2000/svg" xmlns:xlink="http://www.w3.org/1999/xlink" viewBox="0 0 50 50" version="1.1" fill="#3b475e" id="svg_icon.primary" x="65" y="50" width="30" height="30"><g id="surface1"><path style=" " d="M 10 2 C 8.355469 2 7 3.355469 7 5 L 7 45 C 7 46.644531 8.355469 48 10 48 L 40 48 C 41.644531 48 43 46.644531 43 45 L 43 5 C 43 3.355469 41.644531 2 40 2 Z M 10 4 L 40 4 C 40.566406 4 41 4.433594 41 5 L 41 45 C 41 45.566406 40.566406 46 40 46 L 10 46 C 9.433594 46 9 45.566406 9 45 L 9 5 C 9 4.433594 9.433594 4 10 4 Z M 35.546875 6 C 35.546875 6 34.027344 10.179688 33 13 L 34.0625 13 C 34.304688 12.34375 34.550781 11.664063 34.792969 11 L 37.207031 11 C 37.449219 11.664063 37.699219 12.34375 37.9375 13 L 39 13 C 37.972656 10.179688 36.453125 6 36.453125 6 Z M 36 7.679688 C 36.234375 8.324219 36.527344 9.128906 36.84375 10 L 35.15625 10 C 35.472656 9.128906 35.765625 8.324219 36 7.679688 Z M 22 20 C 20.34375 20 19 21.34375 19 23 C 19 28 25 31 25 31 C 25 31 31 28.125 31 23 C 31 21.34375 29.65625 20 28 20 C 26.34375 20 25 22.34375 25 24 C 25 22.34375 23.65625 20 22 20 Z M 11 37 C 12.027344 39.820313 13.546875 44 13.546875 44 L 14.453125 44 C 14.453125 44 15.972656 39.820313 17 37 L 15.9375 37 C 15.695313 37.65625 15.449219 38.335938 15.207031 39 L 12.792969 39 C 12.550781 38.335938 12.300781 37.65625 12.0625 37 Z M 13.15625 40 L 14.84375 40 C 14.527344 40.871094 14.234375 41.675781 14 42.324219 C 13.765625 41.675781 13.472656 40.871094 13.15625 40 Z "></path></g></svg>