<svg width="180" height="50" viewBox="0 0 180 50" fill="none" xmlns="http://www.w3.org/2000/svg">
<path d="M37.6705 4.18445H4.83228C2.16348 4.18445 0 6.34794 0 9.01673C0 11.6855 2.16348 13.849 4.83228 13.849H37.6705C40.3393 13.849 42.5028 11.6855 42.5028 9.01673C42.5028 6.34794 40.3393 4.18445 37.6705 4.18445Z" fill="#3CA46E"/>
<path d="M37.6705 16.2603H4.83228C2.16348 16.2603 0 18.4237 0 21.0925C0 23.7613 2.16348 25.9248 4.83228 25.9248H37.6705C40.3393 25.9248 42.5028 23.7613 42.5028 21.0925C42.5028 18.4237 40.3393 16.2603 37.6705 16.2603Z" fill="#399CBF"/>
<path d="M22.7669 28.3313H4.83228C2.16348 28.3313 0 30.4948 0 33.1636C0 35.8324 2.16348 37.9959 4.83228 37.9959H22.7669C25.4357 37.9959 27.5992 35.8324 27.5992 33.1636C27.5992 30.4948 25.4357 28.3313 22.7669 28.3313Z" fill="#EDB234"/>
<path d="M37.675 28.3313H34.8958C32.227 28.3313 30.0635 30.4948 30.0635 33.1636C30.0635 35.8324 32.227 37.9959 34.8958 37.9959H37.675C40.3438 37.9959 42.5073 35.8324 42.5073 33.1636C42.5073 30.4948 40.3438 28.3313 37.675 28.3313Z" fill="#C82C5F"/>
<path d="M75.05 21.8189C73.5345 21.0199 71.4766 20.3517 68.9298 19.8433C67.2496 19.4996 65.9713 19.1558 65.1337 18.8072C64.2089 18.4295 63.9232 18.1051 63.8457 17.984C63.6666 17.708 63.5746 17.403 63.5746 17.0495C63.5746 16.6961 63.6762 16.3232 64.3977 15.9698C65.2208 15.563 66.2715 15.3597 67.5159 15.3597C68.6296 15.3597 69.6125 15.4904 70.4405 15.747C71.2007 15.9843 71.9366 16.4346 72.6193 17.0931C73.2779 17.708 74.0865 18.1051 75.0306 18.2745C76.0668 18.4634 77.0062 18.2745 77.8245 17.7129C78.6282 17.1125 79.0785 16.3039 79.1318 15.3791C79.1802 14.5027 78.8655 13.6505 78.2312 12.9193C77.1272 11.5587 75.6359 10.4887 73.7959 9.72848C71.9947 8.98766 69.9175 8.60999 67.6176 8.60999C65.8261 8.60999 64.0781 8.90534 62.427 9.48638C60.7081 10.0916 59.2749 11.0213 58.1661 12.2657C56.9895 13.5778 56.3939 15.2386 56.3939 17.1996C56.3939 19.4415 57.28 21.3589 59.028 22.8938C60.6887 24.3561 63.2211 25.4067 66.7751 26.1088C69.6996 26.6318 70.9779 27.237 71.5299 27.6534C72.3724 28.2829 72.4547 28.8397 72.445 29.198C72.4354 29.5563 72.3191 30.0889 71.467 30.6215C70.668 31.1203 69.4237 31.3721 67.7677 31.3721C66.441 31.3721 65.2257 31.1348 64.1604 30.6651C63.1 30.1955 62.335 29.7064 61.8847 29.2029C61.2359 28.5105 60.4418 28.094 59.5218 27.9778C58.5534 27.8568 57.6044 28.1618 56.7135 28.8736C55.9097 29.4885 55.4159 30.3359 55.2996 31.3188C55.1738 32.3404 55.503 33.2992 56.2535 34.0932C57.4495 35.2892 59.12 36.2818 61.2165 37.0371C63.2792 37.7828 65.5452 38.1605 67.9614 38.1605C70.3775 38.1605 72.5612 37.7586 74.2608 36.9742C76.0039 36.1656 77.3596 35.0519 78.2796 33.6623C79.2093 32.263 79.6789 30.6748 79.6789 28.9414C79.6789 27.4162 79.3061 26.0459 78.5701 24.8596C77.839 23.6879 76.6575 22.6662 75.0548 21.8189H75.05Z" fill="#1F373D"/>
<path d="M96.2867 30.6845H94.6211C93.9384 30.6845 93.396 30.4036 92.907 29.8032C92.3647 29.135 92.0984 28.3119 92.0984 27.2806V16.3861H95.0617C96.0543 16.3861 96.8871 16.0811 97.5359 15.4807C98.2041 14.8658 98.5576 14.0523 98.5576 13.1372C98.5576 12.1543 98.2041 11.3118 97.5359 10.692C96.8871 10.0916 96.0543 9.78655 95.0617 9.78655H92.0984V3.93262C92.0984 2.8916 91.7498 2.01519 91.0622 1.32279C90.3747 0.635235 89.4983 0.286621 88.4573 0.286621C87.4162 0.286621 86.535 0.635235 85.8523 1.32279C85.1647 2.01035 84.8161 2.88675 84.8161 3.92777V9.7817H83.7605C82.7679 9.7817 81.9351 10.0868 81.2863 10.6872C80.6181 11.3021 80.2646 12.1494 80.2646 13.1323C80.2646 14.0523 80.6181 14.8609 81.2863 15.4759C81.9351 16.0763 82.7679 16.3813 83.7605 16.3813H84.8161V27.2757C84.8161 29.2561 85.2422 31.0718 86.0799 32.6745C86.9224 34.2917 88.1038 35.5894 89.5806 36.5287C91.0719 37.4826 92.7714 37.9619 94.6259 37.9619H95.5072C96.645 37.9619 97.6037 37.6375 98.3591 36.9935C99.1628 36.3108 99.5889 35.386 99.5889 34.3208C99.5889 33.2556 99.279 32.4421 98.6738 31.7642C98.0395 31.0573 97.2164 30.6796 96.2916 30.6796L96.2867 30.6845Z" fill="#1F373D"/>
<path d="M128.544 22.6226C128.433 20.1532 127.784 17.8823 126.613 15.8633C125.325 13.6359 123.557 11.8541 121.364 10.5613C119.161 9.26849 116.653 8.60999 113.907 8.60999C111.162 8.60999 108.644 9.26365 106.426 10.5613C104.214 11.8541 102.441 13.6359 101.149 15.8633C99.8558 18.0954 99.2021 20.6326 99.2021 23.4119C99.2021 26.1912 99.8026 28.6993 100.984 30.9024C102.17 33.12 103.817 34.897 105.879 36.1946C107.956 37.502 110.324 38.1653 112.929 38.1653C115.534 38.1653 117.902 37.502 119.979 36.1946C120.434 35.909 120.87 35.5942 121.286 35.2602C121.441 35.909 121.761 36.4755 122.24 36.9548C122.942 37.6569 123.828 38.0152 124.874 38.0152C125.92 38.0152 126.801 37.6569 127.503 36.9548C128.206 36.2528 128.564 35.3667 128.564 34.3256V22.7534L128.549 22.6226H128.544ZM117.737 30.3455C116.614 31.0331 115.36 31.3672 113.907 31.3672C112.455 31.3672 111.239 31.0331 110.097 30.3407C108.964 29.6532 108.053 28.6993 107.39 27.5082C106.727 26.3074 106.388 24.9322 106.388 23.4119C106.388 21.8915 106.727 20.468 107.39 19.2672C108.048 18.0712 108.959 17.1222 110.097 16.4346C111.239 15.7422 112.484 15.4081 113.907 15.4081C115.331 15.4081 116.609 15.7422 117.737 16.4298C118.87 17.1222 119.737 18.0518 120.395 19.2575C121.049 20.4631 121.378 21.8576 121.378 23.4119C121.378 24.9661 121.049 26.3122 120.395 27.5178C119.742 28.7283 118.87 29.6531 117.737 30.3455Z" fill="#1F373D"/>
<path d="M156.463 11.06C156.138 10.232 155.446 9.58803 154.4 9.14741C152.395 8.30975 150.705 8.95858 149.761 10.9389L142.92 26.3945L135.1 10.8615C134.674 9.95602 134.025 9.33626 133.173 9.007C132.321 8.68259 131.43 8.71164 130.519 9.09416C129.609 9.47667 128.96 10.111 128.587 10.9728C128.2 11.8783 128.258 12.8515 128.752 13.786L139.477 34.161L134.843 44.6342C134.383 45.6219 134.301 46.5419 134.606 47.3602C134.911 48.1882 135.594 48.8467 136.63 49.3212C137.245 49.5826 137.782 49.7134 138.276 49.7134C139.075 49.7134 140.528 49.4229 141.278 47.4861L156.25 13.8247C156.71 12.8079 156.782 11.8783 156.463 11.0551V11.06Z" fill="#1F373D"/>
<path d="M178.881 24.8644C178.15 23.6926 176.968 22.671 175.365 21.8236C173.85 21.0247 171.792 20.3565 169.245 19.8481C167.565 19.5043 166.287 19.1557 165.449 18.8119C164.524 18.4342 164.239 18.1098 164.161 17.9888C163.982 17.7128 163.89 17.4077 163.89 17.0543C163.89 16.7008 163.992 16.328 164.713 15.9745C165.536 15.5678 166.587 15.3644 167.831 15.3644C168.945 15.3644 169.928 15.4952 170.756 15.7518C171.516 15.9891 172.252 16.4394 172.935 17.0979C173.593 17.7128 174.402 18.1098 175.346 18.2793C176.382 18.4681 177.322 18.2793 178.14 17.7176C178.944 17.1172 179.394 16.3086 179.447 15.3838C179.496 14.5074 179.186 13.6504 178.547 12.9241C177.448 11.5683 175.951 10.4934 174.111 9.73324C172.31 8.99242 170.233 8.61475 167.933 8.61475C166.142 8.61475 164.394 8.9101 162.742 9.49114C161.024 10.0964 159.59 11.0309 158.482 12.2704C157.305 13.5826 156.709 15.2434 156.709 17.2044C156.709 19.4462 157.595 21.3636 159.343 22.8985C161.004 24.3608 163.537 25.4115 167.091 26.1136C170.015 26.6365 171.293 27.2418 171.845 27.6582C172.693 28.2876 172.77 28.8445 172.761 29.2028C172.751 29.5611 172.635 30.0937 171.782 30.6263C170.984 31.125 169.739 31.3768 168.083 31.3768C166.756 31.3768 165.541 31.1396 164.481 30.6699C163.42 30.2002 162.655 29.7112 162.205 29.2124C161.556 28.52 160.762 28.1036 159.842 27.9874C158.874 27.8615 157.93 28.1666 157.034 28.8832C156.225 29.4981 155.736 30.3455 155.62 31.3284C155.494 32.35 155.823 33.3088 156.574 34.1028C157.77 35.2988 159.44 36.2914 161.537 37.0468C163.6 37.7924 165.866 38.1701 168.282 38.1701C170.698 38.1701 172.882 37.7682 174.581 36.9838C176.329 36.1752 177.68 35.0615 178.6 33.6719C179.53 32.2726 179.999 30.6844 179.999 28.951C179.999 27.4258 179.626 26.0555 178.89 24.8692L178.881 24.8644Z" fill="#1F373D"/>
</svg>
